<svg width="11" height="11" viewBox="0 0 15 15" fill="none" xmlns="http://www.w3.org/2000/svg">
<g clip-path="url(#clip0)">
<path d="M12.7917 2.18576C9.85601 -0.736789 5.10745 -0.725054 2.18585 2.2097C-0.737171 5.14539 -0.726375 9.89394 2.20885 12.8155C5.14548 15.7381 9.89497 15.7273 12.8161 12.7916C15.7377 9.85592 15.7279 5.1069 12.7917 2.18576Z" fill="#030104"/>
<path d="M6.23743 11.2171L5.40752 13.6613C6.61249 14.0504 7.90994 14.0772 9.12806 13.7411L8.8159 11.1987C7.98458 11.4945 7.07251 11.5006 6.23743 11.2171ZM3.81152 6.15963L1.1617 5.7564C0.813869 7.00785 0.849075 8.34473 1.26732 9.57881L3.84485 8.93337C3.49796 8.04478 3.48575 7.05479 3.81152 6.15963ZM13.5016 5.31985L11.1709 6.10611C11.5455 7.09469 11.507 8.20344 11.055 9.16761L13.5668 9.48305C14.001 8.12974 13.9789 6.66236 13.5016 5.31985ZM5.34837 1.35334L5.82623 3.94824C6.77772 3.50042 7.87098 3.45535 8.85017 3.81305L9.59325 1.40169C8.22539 0.910682 6.72562 0.894722 5.34837 1.35334Z" fill="#030104"/>
<path d="M7.50078 10.3712C9.0866 10.3712 10.3722 9.08562 10.3722 7.4998C10.3722 5.91398 9.0866 4.62842 7.50078 4.62842C5.91496 4.62842 4.62939 5.91398 4.62939 7.4998C4.62939 9.08562 5.91496 10.3712 7.50078 10.3712Z" fill="#030104"/>
</g>
<defs>
<clipPath id="clip0">
<rect width="15" height="15" fill="white"/>
</clipPath>
</defs>
</svg>
