<svg width="15" height="15" viewBox="0 0 25 25" fill="none" xmlns="http://www.w3.org/2000/svg">
<g clip-path="url(#clip0)">
<path d="M13.9652 12.5069L24.6817 1.7904C25.0953 1.39094 25.1068 0.731847 24.7073 0.318236C24.3079 -0.0953742 23.6488 -0.106843 23.2352 0.292614C23.2265 0.300972 23.218 0.309513 23.2096 0.318236L12.493 11.0347L1.77653 0.318175C1.36292 -0.0812822 0.703824 -0.0698134 0.304367 0.343797C-0.0853304 0.747281 -0.0853304 1.38691 0.304367 1.7904L11.0209 12.5069L0.304367 23.2233C-0.102107 23.6299 -0.102107 24.289 0.304367 24.6955C0.710901 25.1019 1.36999 25.1019 1.77653 24.6955L12.493 13.979L23.2095 24.6955C23.6231 25.095 24.2822 25.0835 24.6817 24.6699C25.0713 24.2664 25.0713 23.6268 24.6817 23.2233L13.9652 12.5069Z" fill="black"/>
</g>
<defs>
<clipPath id="clip0">
<rect width="25" height="25" fill="white"/>
</clipPath>
</defs>
</svg>
