<svg width="25" height="25" viewBox="0 0 50 50" fill="none" xmlns="http://www.w3.org/2000/svg">
<g clip-path="url(#clip0)">
<path d="M49.6948 48.2219L34.4813 33.0083C37.6413 29.4998 39.5834 24.8739 39.5834 19.7916C39.5833 8.87861 30.7048 0 19.7917 0C8.87861 0 0 8.87861 0 19.7917C0 30.7048 8.87861 39.5834 19.7917 39.5834C24.874 39.5834 29.4998 37.6413 33.0084 34.4813L48.2219 49.6948C48.4253 49.8982 48.6919 50 48.9584 50C49.2249 50 49.4914 49.8982 49.6949 49.6948C50.1018 49.2879 50.1018 48.6287 49.6948 48.2219ZM19.7917 37.5C10.0281 37.5 2.0834 29.5563 2.0834 19.7917C2.0834 10.0271 10.0281 2.0833 19.7917 2.0833C29.5553 2.0833 37.5 10.0271 37.5 19.7917C37.5 29.5563 29.5553 37.5 19.7917 37.5Z" fill="black"/>
</g>
<defs>
<clipPath id="clip0">
<rect width="50" height="50" fill="white"/>
</clipPath>
</defs>
</svg>
